<svg xmlns="http://www.w3.org/2000/svg" xmlns:xlink="http://www.w3.org/1999/xlink" width="365" height="56" viewBox="0 0 365 56">
    <defs>
        <path id="a" d="M0 55.541h364.765V0H0z"/>
    </defs>
    <g fill="none" fill-rule="evenodd" opacity=".6">
        <path fill="#FFF" d="M37.766 46.135c.25 0 .443.029.584.082a.425.425 0 0 1 .225.174c.054.082.088.22.088.422v1.783c0 .46-.067.789-.182.973a1.314 1.314 0 0 1-.54.44c-.232.105-.527.16-.86.16-.295 0-.543-.048-.743-.122a.967.967 0 0 1-.412-.322c-.088-.127-.127-.381-.127-.774v-2.138c0-.254.02-.408.06-.475a.365.365 0 0 1 .19-.142c.094-.041.264-.061.504-.061h.166v-.113H33.47v.113c.274-.002.45.02.549.057.102.039.17.084.207.142.04.067.06.225.06.479v2.138c0 .364.085.65.254.868.166.212.448.38.854.525.295.1.715.152 1.26.152.65 0 1.162-.097 1.537-.291.377-.187.617-.398.709-.621.1-.232.154-.595.154-1.117v-1.654c0-.184.018-.3.06-.377.046-.102.132-.17.25-.22.118-.052.26-.081.436-.081h.129v-.113h-2.164v.113zM45.201 47.397a.694.694 0 0 0-.405-.108c-.199 0-.407.05-.62.154-.223.1-.475.309-.766.623v-.686h-1.772v.114a.848.848 0 0 1 .311.059.233.233 0 0 1 .133.135c.03.044.04.155.04.334v1.657c0 .274-.026.434-.097.492-.07.072-.2.105-.387.118v.11h2.346v-.11c-.175-.01-.3-.03-.369-.055a.323.323 0 0 1-.166-.127.583.583 0 0 1-.033-.237v-.19l-.006-.688c0-.252.054-.478.15-.688a.72.72 0 0 1 .287-.314.474.474 0 0 1 .254-.073c.045 0 .08.01.104.023.023.006.096.05.221.123.113.07.261.104.42.104a.57.57 0 0 0 .361-.117.41.41 0 0 0 .152-.341.365.365 0 0 0-.158-.313M51.195 49.738v-2.357h-1.758v.113c.191.014.321.055.373.107.067.057.094.201.094.434v1.613c-.166.17-.32.281-.438.338a.78.78 0 0 1-.302.061.477.477 0 0 1-.219-.049.282.282 0 0 1-.133-.143c-.029-.062-.043-.203-.043-.414v-2.06H47v.113c.19.014.321.055.383.107.057.057.086.201.086.434v1.197c0 .348.034.586.098.733.064.136.191.257.381.361.19.107.4.156.65.156s.487-.03.688-.11a2.21 2.21 0 0 0 .62-.374v.4h1.768v-.109c-.197-.016-.316-.06-.378-.115-.063-.053-.1-.2-.1-.436M56.652 51.478c-.252.088-.592.125-1.016.125-.504 0-.85-.047-1.037-.139-.189-.087-.277-.186-.277-.297 0-.119.088-.21.27-.27.101-.044.308-.061.626-.061.735 0 1.182.014 1.348.035.17.03.293.08.387.133a.178.178 0 0 1 .064.139c0 .142-.125.258-.365.335m-1.623-3.797a.637.637 0 0 1 .457-.186c.187 0 .318.047.416.154.143.143.215.401.215.779 0 .344-.069.569-.188.69a.648.648 0 0 1-.46.178.616.616 0 0 1-.44-.178c-.125-.122-.18-.34-.18-.657 0-.395.061-.654.18-.78m2.223 2.52c-.247-.1-.698-.154-1.342-.154l-.8.012c-.196 0-.337-.027-.423-.072-.084-.053-.123-.117-.123-.196 0-.087.04-.162.135-.226a.618.618 0 0 1 .353-.093c.352.01.537.014.56.014.227 0 .487-.044.778-.134.295-.092.531-.207.703-.37a.735.735 0 0 0 .25-.563.593.593 0 0 0-.109-.358c-.055-.089-.16-.18-.313-.285h.836v-.359H56.29a3.358 3.358 0 0 0-.89-.128c-.546 0-.99.108-1.335.322-.35.218-.516.477-.516.768 0 .223.088.424.272.6.19.17.49.303.91.413-.353.098-.625.223-.785.357-.162.143-.244.29-.244.44 0 .245.197.435.6.569-.292.056-.49.12-.6.2-.102.08-.153.17-.153.273 0 .1.07.197.207.29.14.096.372.17.692.221.326.06.685.079 1.07.079.518 0 .98-.051 1.38-.157a1.55 1.55 0 0 0 .636-.328c.162-.15.244-.319.244-.508 0-.282-.178-.495-.525-.627M63.605 49.738v-2.357h-1.762v.113c.192.014.321.055.38.107.058.057.09.201.09.434v1.613c-.17.17-.319.281-.444.338a.709.709 0 0 1-.297.061.488.488 0 0 1-.223-.049.305.305 0 0 1-.133-.143c-.033-.062-.043-.203-.043-.414v-2.06h-1.769v.113c.191.014.322.055.385.107.056.057.09.201.09.434v1.197c0 .348.027.586.095.733.065.136.195.257.38.361.194.107.405.156.65.156.253 0 .482-.03.691-.11a2.32 2.32 0 0 0 .617-.374v.4h1.766v-.109c-.19-.016-.315-.06-.375-.115-.065-.053-.098-.2-.098-.436M68.303 49.715c-.21.119-.387.174-.535.174a.59.59 0 0 1-.33-.08c-.094-.078-.145-.16-.145-.264 0-.12.059-.23.176-.35.186-.175.459-.34.834-.492v1.012zm1.49.31a.196.196 0 0 1-.105-.027.132.132 0 0 1-.07-.074c-.018-.041-.024-.13-.024-.268v-1.171c0-.323-.021-.53-.066-.622-.073-.144-.223-.27-.463-.392-.241-.115-.57-.182-.981-.182-.336 0-.668.037-.974.113-.317.079-.565.188-.741.323-.173.142-.26.289-.26.443 0 .113.067.207.192.283a.909.909 0 0 0 .492.127.787.787 0 0 0 .442-.111c.115-.074.166-.162.166-.268 0-.084-.057-.177-.172-.267-.09-.07-.131-.125-.131-.162 0-.061.037-.102.12-.15.132-.055.292-.085.497-.085.12 0 .23.022.326.059.104.049.166.1.2.168.04.05.062.197.062.422v.302c-.96.305-1.578.55-1.865.737-.276.183-.42.392-.42.62 0 .173.08.31.246.43a1.1 1.1 0 0 0 .615.167c.42 0 .893-.161 1.424-.49a.474.474 0 0 0 .25.367c.137.082.332.123.576.123.217 0 .403-.036.57-.11a1.52 1.52 0 0 0 .477-.344l-.14-.076c-.081.078-.165.116-.243.116zM74.748 47.494c.189 0 .328.03.396.078a.205.205 0 0 1 .116.197c0 .123-.094.35-.274.674l-.5.918-.748-1.185c-.154-.24-.224-.403-.224-.489 0-.048.025-.093.088-.132.062-.04.166-.06.318-.06v-.114h-2.305v.113a.885.885 0 0 1 .365.162c.098.076.254.29.465.631l1.399 2.234-.135.252c-.164.32-.313.526-.438.617a.378.378 0 0 1-.24.088c-.041 0-.078-.009-.097-.03-.026-.024-.043-.077-.043-.153-.008-.149-.054-.252-.157-.324-.08-.07-.211-.1-.367-.1a.654.654 0 0 0-.405.123.358.358 0 0 0-.157.305c0 .144.072.267.234.37.156.106.365.151.629.151.31 0 .58-.088.791-.267.154-.129.393-.475.699-1.034l1.236-2.232c.209-.389.356-.613.454-.682a.629.629 0 0 1 .345-.11v-.114h-1.445v.113zM4.482 39.244c.264 0 .475.023.62.074.091.028.17.088.232.17.062.084.087.221.087.42v1.754c0 .461-.062.78-.185.963-.12.185-.309.328-.555.44-.254.103-.553.152-.914.152-.308 0-.566-.043-.769-.125a.919.919 0 0 1-.438-.31c-.092-.124-.137-.378-.137-.767v-2.107c0-.25.024-.406.063-.467a.43.43 0 0 1 .207-.146c.096-.03.268-.05.525-.05h.17v-.12H0v.12c.27-.005.464.013.566.044a.506.506 0 0 1 .225.152c.041.061.056.213.056.467v2.107c0 .362.09.647.264.858.174.215.473.385.892.516.313.103.75.15 1.317.15.687 0 1.226-.092 1.617-.28.393-.19.647-.398.746-.624.1-.22.15-.582.15-1.088v-1.639c0-.18.02-.297.061-.369a.489.489 0 0 1 .274-.22c.126-.052.275-.075.46-.075h.135v-.119h-2.28v.12zM12.736 39.244c.371-.004.627.051.785.176.117.095.164.261.164.531v1.844l-3.236-2.67H8.123v.12c.193.003.35.022.457.063.107.032.226.112.37.227l.141.113v3.037c0 .245-.068.403-.21.498-.149.096-.393.145-.758.145v.113h2.326v-.113h-.153c-.22 0-.418-.043-.595-.13-.17-.087-.26-.26-.26-.513v-2.744l4.445 3.598h.166v-3.588c0-.209.026-.353.078-.432a.44.44 0 0 1 .223-.183c.1-.04.285-.069.568-.092v-.119h-2.185v.12zM16.408 39.244h.22c.186 0 .336.023.44.064.11.038.182.088.217.145.037.053.054.191.054.414v2.836c0 .227-.017.361-.054.408a.352.352 0 0 1-.19.153 1.355 1.355 0 0 1-.468.064h-.219v.113h3.44v-.113h-.223c-.18 0-.327-.016-.434-.063-.11-.04-.183-.09-.217-.15-.04-.05-.06-.185-.06-.412v-2.836c0-.223.02-.352.06-.404a.354.354 0 0 1 .194-.155c.117-.04.267-.064.457-.064h.222v-.119h-3.439v.12zM26.02 39.244c.223 0 .412.02.549.051a.487.487 0 0 1 .226.12.22.22 0 0 1 .08.165.518.518 0 0 1-.052.2 4.689 4.689 0 0 1-.285.47l-1.303 1.904-1.404-2.144c-.145-.23-.238-.366-.26-.414a.327.327 0 0 1-.04-.14c0-.064.034-.11.117-.144.099-.045.291-.068.573-.068h.111v-.119h-3.157v.12c.258.02.422.063.52.136.096.072.273.316.541.734l2.258 3.424h.166l2.264-3.289c.268-.397.474-.647.604-.758.19-.139.402-.225.642-.248v-.119h-2.15v.12zM30.385 43.111a.331.331 0 0 1-.193.15 1.257 1.257 0 0 1-.465.067h-.221v.113h5.699l.29-1.363h-.176a1.673 1.673 0 0 1-.803.851c-.373.182-.86.274-1.48.274h-.39c-.195 0-.327-.014-.41-.053-.087-.035-.146-.078-.177-.133-.028-.047-.041-.19-.041-.433v-1.213c.314 0 .553.027.719.082a.859.859 0 0 1 .433.318c.129.156.209.358.25.606h.186v-2.262h-.186c-.051.332-.174.588-.363.762-.188.17-.486.257-.908.257h-.131v-1.759h.68c.5 0 .84.021 1.02.058.313.06.55.164.724.295.17.14.298.37.392.674h.194v-1.277h-5.522v.12h.22c.218 0 .384.026.509.087.086.043.15.095.177.174.026.041.03.164.03.361v2.836c0 .226-.02.361-.057.408M39.639 39.367h.52c.525 0 .896.086 1.126.244.243.145.356.393.356.717a.8.8 0 0 1-.191.553 1.087 1.087 0 0 1-.524.293c-.22.048-.558.076-1.006.076h-.281v-1.883zm.067 3.762c-.04-.057-.067-.2-.067-.444v-1.213h.434l2.12 1.97h2.063v-.114a1.178 1.178 0 0 1-.465-.11c-.088-.048-.23-.164-.437-.349l-1.578-1.47c.4-.06.715-.155.937-.288.35-.21.522-.476.522-.793 0-.254-.117-.488-.352-.683-.23-.194-.533-.327-.906-.395-.361-.076-.943-.115-1.733-.115H37.18v.12c.305 0 .508.018.613.05.117.037.198.086.237.146.047.061.064.203.064.444v2.8c0 .244-.017.387-.064.444-.04.06-.116.111-.23.146-.104.037-.315.053-.62.053v.113h3.373v-.113c-.303 0-.51-.016-.62-.053a.45.45 0 0 1-.227-.146zM48.048 43.539c.661 0 1.205-.129 1.633-.389.432-.257.643-.566.643-.925 0-.282-.129-.54-.397-.762-.263-.217-.785-.449-1.558-.699a11.346 11.346 0 0 1-1.049-.371c-.209-.098-.363-.19-.449-.292a.37.37 0 0 1-.1-.257c0-.153.094-.282.285-.397.194-.115.451-.176.783-.176.432 0 .827.11 1.19.332.375.217.601.512.695.868h.197l-.054-1.44h-.155c-.033.125-.082.213-.13.25a.37.37 0 0 1-.198.047c-.09 0-.242-.033-.46-.101a3.37 3.37 0 0 0-1.174-.196c-.582 0-1.073.121-1.459.365-.379.239-.57.536-.57.881a.84.84 0 0 0 .206.549c.14.17.348.315.602.451.266.141.691.305 1.293.494.433.139.73.25.896.336.17.084.295.176.377.274.08.092.125.189.125.293 0 .172-.107.322-.332.449-.209.135-.5.195-.86.195a2.62 2.62 0 0 1-1.32-.355 1.794 1.794 0 0 1-.822-1.053h-.177v1.629h.177a.564.564 0 0 1 .225-.193.588.588 0 0 1 .267-.067c.096 0 .233.02.385.067a7.6 7.6 0 0 0 .696.156c.191.021.38.037.59.037M52.824 43.111a.322.322 0 0 1-.187.15c-.122.05-.28.067-.466.067h-.222v.113h3.44v-.113h-.223c-.182 0-.324-.014-.436-.063a.434.434 0 0 1-.217-.15c-.037-.05-.056-.186-.056-.412v-2.836c0-.223.02-.352.053-.404a.423.423 0 0 1 .202-.155c.114-.04.266-.064.454-.064h.222v-.119H51.95v.12h.222c.182 0 .33.022.436.063.113.037.18.088.217.145.037.053.056.191.056.414v2.836c0 .226-.019.361-.056.408M59.277 39.367c.541 0 .935.033 1.164.096.332.1.605.273.816.527.26.338.397.773.397 1.33 0 .686-.193 1.195-.586 1.518-.287.25-.7.365-1.24.365-.164 0-.295-.014-.385-.047-.06-.023-.102-.05-.127-.092-.02-.043-.039-.146-.039-.322v-3.375zm-1.623 3.744a.504.504 0 0 1-.225.16 1.297 1.297 0 0 1-.443.057h-.223v.113h2.953c.422 0 .735-.012.932-.037.45-.055.83-.133 1.145-.234.298-.098.576-.233.81-.4a2.09 2.09 0 0 0 .582-.632c.143-.25.223-.533.223-.84 0-.44-.15-.837-.457-1.177-.3-.352-.75-.606-1.34-.78-.473-.144-1.104-.216-1.895-.216h-2.953v.12h.223c.187 0 .332.022.443.063.104.037.18.088.211.145.043.053.055.191.055.414v2.836c0 .228-.012.361-.04.408zM66.84 41.977l1.01-1.482.98 1.482h-1.99zm2.564 1.279c-.1.054-.28.072-.535.072h-.133v.113h3.185v-.113a1.045 1.045 0 0 1-.464-.111c-.147-.088-.336-.3-.56-.64l-2.372-3.536h-.09l-2.35 3.442c-.226.328-.412.549-.562.65a1.11 1.11 0 0 1-.584.195v.113h2.182v-.113c-.338-.014-.555-.043-.639-.073-.15-.064-.223-.148-.223-.269 0-.093.041-.212.131-.351l.29-.424h2.306l.355.538c.086.143.145.227.147.245.012.044.023.078.023.121 0 .058-.025.11-.107.14zM77.508 42.838c-.287.25-.701.363-1.246.363-.166 0-.297-.011-.38-.045a.266.266 0 0 1-.134-.091c-.027-.043-.041-.147-.041-.323v-3.375c.543 0 .936.033 1.172.096.328.1.604.273.815.527.265.338.4.774.4 1.33 0 .686-.193 1.196-.586 1.518m.54-3.498c-.47-.143-1.102-.215-1.894-.215h-2.95v.119h.216c.193 0 .33.024.443.065.11.037.18.088.217.142.035.055.049.194.049.416v2.836c0 .229-.014.362-.041.406a.483.483 0 0 1-.225.163c-.1.043-.25.054-.443.054h-.215v.116h2.949c.426 0 .735-.012.936-.038a5.997 5.997 0 0 0 1.133-.234c.308-.098.58-.23.82-.4.233-.168.426-.381.578-.631a1.707 1.707 0 0 0-.238-2.018c-.3-.351-.744-.605-1.334-.781M91.94 42.492a1.473 1.473 0 0 1-.667.646c-.22.114-.502.161-.83.161-.504 0-.89-.125-1.162-.366-.393-.355-.588-.898-.588-1.63 0-.622.123-1.094.392-1.422.307-.41.758-.61 1.364-.61.328 0 .617.061.865.176.254.12.46.313.62.604.16.277.243.707.243 1.275 0 .473-.084.865-.238 1.166m1.004-2.822c-.662-.426-1.508-.627-2.555-.598-.967-.029-1.78.172-2.45.598-.659.431-1 .96-1 1.603 0 .57.261 1.061.771 1.477.648.53 1.562.79 2.746.79 1.173 0 2.093-.275 2.738-.827.49-.414.734-.897.734-1.444 0-.64-.334-1.172-.984-1.599M99.785 40.88a1.08 1.08 0 0 1-.523.294c-.219.049-.557.076-1 .076h-.284v-1.883h.52c.517 0 .892.084 1.132.243.225.146.35.394.35.718 0 .233-.066.41-.195.553m1.902 1.988l-1.57-1.47c.398-.061.711-.155.938-.29.345-.208.515-.474.515-.79 0-.254-.113-.49-.346-.684a1.962 1.962 0 0 0-.902-.395c-.37-.076-.953-.115-1.752-.115h-3.053v.119c.3 0 .51.02.622.05.103.038.187.087.226.148.05.06.07.203.07.443v2.8c0 .245-.02.387-.07.444-.039.06-.119.11-.226.147-.11.039-.319.05-.622.05v.116h3.38v-.116c-.305 0-.508-.011-.624-.05-.11-.036-.184-.084-.225-.147-.048-.057-.07-.2-.07-.443v-1.213h.434l2.111 1.969h2.075v-.116a1.068 1.068 0 0 1-.463-.11c-.094-.046-.237-.161-.448-.347M103.546 39.125v1.174h.19c.074-.322.25-.569.531-.737.201-.125.524-.187.963-.187h.475v3.328c0 .227-.016.361-.055.406a.395.395 0 0 1-.2.155c-.116.047-.27.064-.462.064h-.213v.113h3.434v-.113h-.217a1.18 1.18 0 0 1-.44-.062c-.109-.041-.183-.092-.215-.151-.039-.051-.058-.185-.058-.412v-3.328h.484c.307 0 .524.021.65.059.221.068.397.166.52.285.125.111.244.31.344.58h.178v-1.174h-5.909zM75.666 34.361l-7.827-10.135c6.546-3.803 6.546-9.703 5.776-12.29h2.051V34.36zM61.311 18.556h-2.556v-6.593h2.636s3.367-.112 3.328 3.142c-.037 3.64-3.408 3.451-3.408 3.451zm-19.499 1.16a11.667 11.667 0 0 0-.41-2.9 15.948 15.948 0 0 0 1.713-.539 7.748 7.748 0 0 1 .883 3.44h-2.186zm1.139 4.192c-.25-.084-.823-.276-1.623-.467.3-.959.459-2 .484-3.103h2.182a8.04 8.04 0 0 1-1.043 3.57zm-1.478 1.904a5.899 5.899 0 0 1-.483.42 31.597 31.597 0 0 0-.949-.184 9.395 9.395 0 0 0 1.078-2.02c.695.171 1.211.327 1.496.42a8.252 8.252 0 0 1-1.142 1.364zm-2.911 1.85a9.476 9.476 0 0 0 1.049-1.06c.28.05.516.097.713.134a9.107 9.107 0 0 1-1.762.926zm-1.589.322a3.715 3.715 0 0 1-.233.11c.291-.352.653-.915.988-1.766.366.045.747.097 1.155.16a8.18 8.18 0 0 1-1.196 1.061 7.21 7.21 0 0 1-.714.435zm-1.327.246v-2.045c.436 0 .922.026 1.436.074-.623 1.424-1.215 1.88-1.436 1.971zm0-4.885c.719.014 1.469.055 2.202.13a13.245 13.245 0 0 1-.536 2.181 19.073 19.073 0 0 0-1.666-.102v-2.209zm0-3.007h2.448a22.843 22.843 0 0 1-.16 2.523 25.825 25.825 0 0 0-2.288-.143v-2.38zm0-2.733a23.83 23.83 0 0 0 2.323-.15c.077.722.125 1.49.131 2.261h-2.454v-2.11zm0-3.02c.52-.01 1.098-.046 1.731-.109.225.735.394 1.53.512 2.364-.744.087-1.496.132-2.243.142v-2.398zm0-2.925c.416.18 1.016.834 1.536 2.205-.557.055-1.073.082-1.536.092V11.66zm3.434 1.96c-.424.07-.844.13-1.246.175-.305-.897-.715-1.536-.99-1.955-.016-.014-.024-.034-.032-.047.344.111 1.18.504 2.268 1.826zm1.533-.277c-.263.055-.547.106-.838.16-.4-.54-.861-.962-1.244-1.29.785.222 1.504.701 2.082 1.13zm-1.877 6.373a23.088 23.088 0 0 0-.138-2.334 24.395 24.395 0 0 0 2.189-.414c.244.86.373 1.782.399 2.748h-2.45zm-.179 3.213c.099-.806.157-1.677.17-2.59h2.459a10.665 10.665 0 0 1-.477 2.961 28.516 28.516 0 0 0-2.152-.37zm-.53-8.535a28.22 28.22 0 0 0 1.473-.21c.461.667.83 1.402 1.103 2.195-.683.152-1.375.281-2.083.382a18.484 18.484 0 0 0-.493-2.367zm2.471 9.496a8.7 8.7 0 0 1-1.146 2.04c-.485-.08-.952-.149-1.409-.2a14.09 14.09 0 0 0 .521-2.185c.692.087 1.37.201 2.034.345zm.966-9.828a8.43 8.43 0 0 1 1.347 1.666c-.349.13-.881.305-1.588.494-.27-.767-.62-1.492-1.05-2.16.493-.092.864-.17 1.057-.217.081.08.163.15.234.217zm-6.433-.105c-.467-.01-.985-.037-1.539-.092.513-1.37 1.113-2.025 1.539-2.205v2.297zm0 3.025a21.879 21.879 0 0 1-2.248-.142c.119-.834.291-1.629.508-2.364.63.063 1.219.098 1.74.108v2.398zm0 2.734h-2.463c.006-.77.053-1.539.131-2.26.778.085 1.554.14 2.332.15v2.11zm0 3.002c-.761.014-1.529.061-2.297.143a24.979 24.979 0 0 1-.16-2.523h2.457v2.38zm0 2.836c-.51.006-1.069.041-1.672.102-.226-.647-.4-1.38-.535-2.182a27.423 27.423 0 0 1 2.207-.129v2.21zm0 2.676c-.233-.092-.822-.547-1.447-1.97a15.83 15.83 0 0 1 1.447-.075v2.045zm-1.332-.246a7.576 7.576 0 0 1-.713-.435 8.085 8.085 0 0 1-1.197-1.06c.412-.064.785-.116 1.154-.16.338.85.703 1.413.991 1.764a2.415 2.415 0 0 1-.235-.109zm-3.351-1.248c.197-.037.433-.084.714-.135.323.385.68.74 1.047 1.061a9.158 9.158 0 0 1-1.761-.926zm-1.147-.924a8.363 8.363 0 0 1-1.144-1.365c.291-.092.796-.248 1.5-.42a8.928 8.928 0 0 0 1.076 2.021c-.414.075-.737.137-.953.184-.184-.142-.33-.283-.479-.42zm-2.519-5.474h2.175c.023 1.103.189 2.144.493 3.103a17.64 17.64 0 0 0-1.631.467 7.98 7.98 0 0 1-1.037-3.57zm.869-4.06c.308.116.904.327 1.72.538-.251.91-.391 1.881-.414 2.9H26.67a7.868 7.868 0 0 1 .881-3.439zm1.65-2.216a3.35 3.35 0 0 0 .233-.217c.207.047.571.125 1.06.217-.426.668-.78 1.393-1.043 2.16a18.494 18.494 0 0 1-1.592-.494 8.55 8.55 0 0 1 1.342-1.666zm2.942-1.849c-.39.328-.847.75-1.254 1.29-.284-.054-.561-.105-.83-.16.574-.429 1.294-.908 2.084-1.13zm.007 4.548a26.97 26.97 0 0 1-2.082-.382 9.087 9.087 0 0 1 1.1-2.196 29.63 29.63 0 0 0 1.482.211 17.502 17.502 0 0 0-.5 2.367zm.057 6.784c.127.793.301 1.521.521 2.185-.457.051-.93.12-1.41.2a8.366 8.366 0 0 1-1.138-2.04 22.84 22.84 0 0 1 2.027-.345zm-2.719-3.829c.026-.966.158-1.888.392-2.748.712.166 1.446.311 2.192.414a24.065 24.065 0 0 0-.129 2.334h-2.455zm2.455.622a23.9 23.9 0 0 0 .174 2.591c-.726.098-1.453.22-2.153.371-.291-.91-.45-1.908-.476-2.962h2.455zm1.92-8.545c-.01.013-.021.033-.033.047-.271.42-.684 1.058-.993 1.955a24.4 24.4 0 0 1-1.243-.176c1.088-1.322 1.924-1.715 2.269-1.826zm58.446-7.922H68.766v2.021c-1.927-1.92-6.653-2.002-6.653-2.002H49.27v6.26c-3.524-4.56-8.104-6.426-14.086-6.426-9.049 0-16.979 7.36-16.979 16.492 0 9.137 7.816 15.952 16.857 15.952 5.983 0 10.915-2.522 14.256-6.282v6.037h9.375V25.517l7.935 10.406h18.688V12.05h6.993V3.871z"/>
        <mask id="b" fill="#fff">
            <use xlink:href="#a"/>
        </mask>
        <path fill="#FFF" d="M127.018 55.541h1V0h-1zM221.788 11.435c-1.228 0-2.2.393-2.91 1.175-.711.786-1.068 1.857-1.068 3.22 0 1.402.344 2.484 1.03 3.248.684.765 1.662 1.146 2.933 1.146.78 0 1.67-.134 2.67-.402v1.091c-.776.279-1.732.418-2.869.418-1.648 0-2.919-.479-3.814-1.436-.894-.956-1.343-2.317-1.343-4.08 0-1.104.216-2.07.648-2.9a4.522 4.522 0 0 1 1.867-1.918c.813-.45 1.77-.675 2.872-.675 1.173 0 2.197.206 3.076.616l-.552 1.069c-.846-.38-1.692-.572-2.54-.572M229.593 14.028c-.673 0-1.21.21-1.61.63-.401.42-.636 1.001-.708 1.743h4.384c0-.767-.18-1.353-.536-1.76-.357-.409-.867-.613-1.53-.613m.344 7.302c-1.24 0-2.217-.36-2.934-1.084-.716-.722-1.074-1.726-1.074-3.01 0-1.294.332-2.322.998-3.084.666-.76 1.559-1.142 2.68-1.142 1.052 0 1.884.331 2.495.992.613.662.918 1.535.918 2.62v.768h-5.776c.026.942.274 1.658.746 2.146s1.136.732 1.993.732c.903 0 1.796-.18 2.678-.542v1.084a6.87 6.87 0 0 1-1.274.4c-.4.08-.883.12-1.45.12M240.61 21.184v-5.193c0-.654-.156-1.142-.467-1.465-.311-.322-.798-.483-1.461-.483-.877 0-1.52.227-1.928.681-.408.454-.612 1.204-.612 2.248v4.212h-1.27v-8.027h1.033l.206 1.098h.062c.26-.395.624-.7 1.094-.919a3.688 3.688 0 0 1 1.568-.326c1.01 0 1.77.234 2.28.7.51.466.765 1.212.765 2.237v5.237h-1.27zM246.9 20.327c.224 0 .44-.016.65-.047.208-.032.374-.065.497-.099v.93a2.459 2.459 0 0 1-.608.157 4.846 4.846 0 0 1-.724.062c-1.62 0-2.432-.817-2.432-2.453v-4.776h-1.2v-.586l1.2-.505.535-1.714h.735v1.861h2.432v.944h-2.432v4.725c0 .483.12.854.36 1.113.24.26.568.388.986.388M253.234 13.01c.372 0 .706.03 1.002.088l-.176 1.128a4.522 4.522 0 0 0-.918-.11c-.678 0-1.258.264-1.74.791s-.723 1.184-.723 1.97v4.307h-1.27v-8.028h1.048l.145 1.487h.061c.311-.522.686-.925 1.125-1.208a2.616 2.616 0 0 1 1.446-.425M256.34 17.163c0 1.025.215 1.807.644 2.344.428.537 1.058.805 1.889.805.832 0 1.463-.267 1.894-.802.43-.534.646-1.317.646-2.347 0-1.02-.215-1.795-.646-2.326-.431-.529-1.068-.794-1.91-.794-.83 0-1.458.261-1.881.783-.424.523-.635 1.302-.635 2.337m6.388 0c0 1.31-.344 2.331-1.033 3.065-.688.735-1.64 1.102-2.854 1.102-.75 0-1.415-.168-1.996-.505a3.39 3.39 0 0 1-1.347-1.45c-.316-.63-.474-1.367-.474-2.212 0-1.309.342-2.328 1.025-3.058.684-.73 1.632-1.095 2.846-1.095 1.173 0 2.105.374 2.797 1.121.69.747 1.036 1.758 1.036 3.032M271.597 20.313c.867 0 1.496-.226 1.886-.677.39-.453.585-1.181.585-2.188v-.256c0-1.137-.198-1.949-.593-2.434-.395-.486-1.026-.73-1.893-.73-.745 0-1.314.277-1.71.832-.395.555-.593 1.337-.593 2.348 0 1.025.196 1.799.59 2.32.392.524.968.785 1.728.785zm2.54-.205h-.069c-.586.814-1.464 1.223-2.632 1.223-1.096 0-1.949-.36-2.559-1.078-.609-.716-.914-1.738-.914-3.06 0-1.324.306-2.352.918-3.085.612-.732 1.464-1.098 2.555-1.098 1.138 0 2.01.396 2.617 1.187h.1l-.054-.579-.03-.563V9.787h1.27v11.397h-1.034l-.168-1.076zM280.932 14.028c-.673 0-1.21.21-1.61.63-.401.42-.637 1.001-.708 1.743h4.383c0-.767-.178-1.353-.535-1.76-.357-.409-.867-.613-1.53-.613m.344 7.302c-1.24 0-2.217-.36-2.934-1.084-.716-.722-1.075-1.726-1.075-3.01 0-1.294.333-2.322.999-3.084.665-.76 1.559-1.142 2.68-1.142 1.052 0 1.883.331 2.495.992.613.662.918 1.535.918 2.62v.768h-5.776c.026.942.274 1.658.746 2.146s1.136.732 1.993.732c.903 0 1.796-.18 2.678-.542v1.084a6.87 6.87 0 0 1-1.274.4c-.4.08-.883.12-1.45.12M290.174 21.184h1.301V10.476h-1.301zM299.792 21.184v-5.193c0-.654-.156-1.142-.467-1.465-.311-.322-.798-.483-1.461-.483-.877 0-1.52.227-1.928.681-.408.454-.612 1.204-.612 2.248v4.212h-1.27v-8.027h1.033l.206 1.098h.062c.26-.395.624-.7 1.094-.919a3.688 3.688 0 0 1 1.568-.326c1.01 0 1.77.234 2.28.7.51.466.765 1.212.765 2.237v5.237h-1.27zM309.111 21.184v-5.193c0-.654-.156-1.142-.467-1.465-.31-.322-.798-.483-1.46-.483-.878 0-1.52.227-1.929.681-.408.454-.612 1.204-.612 2.248v4.212h-1.27v-8.027h1.033l.206 1.098h.062c.26-.395.624-.7 1.094-.919a3.688 3.688 0 0 1 1.568-.326c1.01 0 1.77.234 2.28.7.51.466.765 1.212.765 2.237v5.237h-1.27zM313.541 17.163c0 1.025.214 1.807.644 2.344.428.537 1.058.805 1.889.805.832 0 1.462-.267 1.893-.802.432-.534.647-1.317.647-2.347 0-1.02-.215-1.795-.647-2.326-.43-.529-1.067-.794-1.909-.794-.832 0-1.459.261-1.882.783-.423.523-.635 1.302-.635 2.337m6.389 0c0 1.31-.344 2.331-1.034 3.065-.688.735-1.64 1.102-2.853 1.102-.75 0-1.416-.168-1.997-.505a3.39 3.39 0 0 1-1.346-1.45c-.316-.63-.474-1.367-.474-2.212 0-1.309.341-2.328 1.024-3.058.685-.73 1.632-1.095 2.846-1.095 1.173 0 2.106.374 2.798 1.121.69.747 1.036 1.758 1.036 3.032M323.679 21.184l-3.183-8.027h1.362l1.806 4.76c.408 1.114.647 1.836.719 2.168h.06c.057-.258.234-.795.533-1.607.298-.814.968-2.587 2.008-5.32h1.362l-3.183 8.026h-1.484zM331.682 20.327c.79 0 1.412-.208 1.863-.622.45-.416.677-.997.677-1.744v-.725l-1.27.051c-1.01.035-1.738.185-2.184.451-.446.266-.67.68-.67 1.241 0 .44.14.774.417 1.004.278.23.667.344 1.167.344zm2.869.857l-.252-1.143h-.061c-.42.503-.836.844-1.251 1.022-.416.178-.935.267-1.557.267-.832 0-1.483-.205-1.955-.615-.472-.41-.708-.993-.708-1.75 0-1.62 1.354-2.47 4.063-2.549l1.423-.044v-.498c0-.63-.142-1.095-.425-1.395-.283-.3-.735-.45-1.358-.45-.7 0-1.49.204-2.372.614l-.39-.93a6.119 6.119 0 0 1 1.358-.505 6.135 6.135 0 0 1 1.48-.183c1 0 1.74.212 2.223.637.482.425.723 1.106.723 2.043v5.48h-.941zM341.146 21.33c-1.214 0-2.153-.356-2.819-1.072-.666-.715-.998-1.727-.998-3.036 0-1.343.338-2.38 1.013-3.113.676-.732 1.638-1.098 2.888-1.098.403 0 .806.04 1.209.124.403.083.719.18.949.293l-.39 1.033a6.28 6.28 0 0 0-.918-.268 4.333 4.333 0 0 0-.88-.106c-1.704 0-2.555 1.04-2.555 3.12 0 .987.207 1.744.623 2.27.416.528 1.031.792 1.848.792.698 0 1.415-.144 2.15-.432v1.077c-.562.278-1.268.417-2.12.417M344.941 21.184h1.27v-8.027h-1.27v8.027zm-.108-10.203c0-.278.072-.482.215-.611a.767.767 0 0 1 .535-.194c.204 0 .38.066.528.198.148.131.222.334.222.607 0 .274-.074.478-.222.612a.76.76 0 0 1-.528.201.75.75 0 0 1-.535-.201c-.143-.134-.215-.338-.215-.612zM350.924 11.912c.245-.303.51-.67.792-1.1.283-.428.506-.802.67-1.12h1.545v.155c-.225.317-.559.708-1.003 1.17-.443.465-.828.824-1.155 1.078h-.849v-.183zm-1.469 5.25c0 1.027.215 1.808.643 2.345.428.537 1.058.806 1.89.806.831 0 1.462-.267 1.893-.802.431-.535.647-1.317.647-2.348 0-1.02-.216-1.795-.647-2.325-.43-.53-1.067-.795-1.909-.795-.83 0-1.459.262-1.882.784-.423.523-.635 1.3-.635 2.336zm6.388 0c0 1.31-.344 2.332-1.032 3.066-.689.736-1.64 1.103-2.854 1.103-.75 0-1.415-.17-1.997-.505a3.4 3.4 0 0 1-1.347-1.451c-.315-.63-.474-1.367-.474-2.212 0-1.308.342-2.327 1.025-3.058.684-.73 1.632-1.094 2.846-1.094 1.173 0 2.105.373 2.797 1.12.691.747 1.036 1.758 1.036 3.032zM363.495 21.184v-5.193c0-.654-.156-1.142-.467-1.465-.311-.322-.798-.483-1.461-.483-.877 0-1.52.227-1.928.681-.408.454-.612 1.204-.612 2.248v4.212h-1.27v-8.027h1.033l.206 1.098h.062c.26-.395.624-.7 1.094-.919a3.688 3.688 0 0 1 1.568-.326c1.01 0 1.77.234 2.28.7.51.466.765 1.212.765 2.237v5.237h-1.27zM215.476 30.827h1.363l1.835 4.578c.403 1.045.653 1.799.75 2.263h.061c.066-.25.205-.675.417-1.28.213-.601.905-2.456 2.078-5.561h1.362l-3.604 9.14c-.357.904-.774 1.545-1.25 1.924-.477.377-1.064.567-1.756.567-.388 0-.77-.042-1.149-.125v-.974c.281.059.595.088.941.088.873 0 1.494-.47 1.868-1.406l.466-1.143-3.382-8.071zM234.605 38.854h-6.236V28.146h6.236v1.106h-4.935v3.45h4.637V33.8h-4.637v3.941h4.935zM247.266 38.854v-5.222c0-.64-.143-1.119-.428-1.439-.286-.32-.73-.48-1.33-.48-.792 0-1.376.217-1.753.652-.378.434-.567 1.103-.567 2.007v4.482h-1.27v-5.222c0-.64-.142-1.119-.428-1.439-.285-.32-.732-.48-1.339-.48-.796 0-1.378.228-1.748.685-.37.457-.554 1.204-.554 2.245v4.211h-1.27v-8.027h1.032l.207 1.098h.061a2.46 2.46 0 0 1 1.013-.915c.437-.22.925-.33 1.466-.33 1.31 0 2.167.454 2.57 1.362h.062c.25-.42.611-.752 1.086-.996.474-.244 1.015-.366 1.622-.366.948 0 1.66.234 2.13.699.472.467.708 1.213.708 2.238v5.237h-1.27zM254.558 31.713c-.857 0-1.477.227-1.86.68-.381.455-.578 1.178-.588 2.169v.27c0 1.129.197 1.936.589 2.42.393.488 1.023.73 1.89.73.724 0 1.29-.28 1.702-.842.41-.561.616-1.335.616-2.322 0-1.001-.205-1.77-.616-2.303-.411-.535-.988-.802-1.733-.802m.184 7.288a3.769 3.769 0 0 1-1.496-.29 2.781 2.781 0 0 1-1.136-.89h-.092c.06.469.092.913.092 1.333v3.304h-1.27V30.827h1.033l.176 1.098h.06c.327-.44.707-.757 1.14-.952.435-.195.93-.293 1.493-.293 1.112 0 1.97.364 2.574 1.092.605.727.907 1.748.907 3.06 0 1.319-.308 2.344-.922 3.074-.615.73-1.468 1.095-2.56 1.095M263.969 30.68c.372 0 .706.03 1.002.088l-.176 1.128a4.452 4.452 0 0 0-.918-.11c-.678 0-1.26.264-1.74.791-.482.527-.723 1.184-.723 1.97v4.307h-1.27v-8.028h1.048l.145 1.487h.06c.312-.522.687-.925 1.126-1.208a2.616 2.616 0 0 1 1.446-.425M269.424 31.698c-.673 0-1.21.21-1.61.63-.401.42-.637 1.001-.708 1.743h4.383c0-.767-.178-1.353-.535-1.76-.357-.409-.867-.613-1.53-.613m.344 7.302c-1.24 0-2.217-.36-2.934-1.084-.716-.722-1.074-1.726-1.074-3.01 0-1.294.332-2.322.998-3.084.666-.76 1.559-1.142 2.68-1.142 1.052 0 1.883.331 2.495.992.613.662.918 1.535.918 2.62v.768h-5.776c.026.942.274 1.658.746 2.146s1.136.732 1.993.732c.903 0 1.796-.18 2.678-.542v1.084a6.87 6.87 0 0 1-1.274.4c-.4.08-.883.12-1.45.12M280.44 38.854v-5.193c0-.654-.155-1.143-.466-1.465-.311-.322-.798-.483-1.461-.483-.877 0-1.52.227-1.928.681-.408.454-.612 1.204-.612 2.249v4.211h-1.27v-8.027h1.033l.207 1.098h.06c.26-.395.625-.701 1.095-.919a3.688 3.688 0 0 1 1.568-.326c1.01 0 1.77.234 2.28.699.51.467.765 1.213.765 2.238v5.237h-1.27zM287.19 37.982c.866 0 1.495-.226 1.885-.677.39-.452.585-1.18.585-2.187v-.256c0-1.138-.198-1.949-.593-2.435-.395-.486-1.026-.729-1.893-.729-.745 0-1.315.277-1.71.831-.395.555-.593 1.337-.593 2.348 0 1.025.196 1.8.59 2.321.392.523.968.784 1.728.784zm2.54-.205h-.07c-.586.815-1.464 1.223-2.632 1.223-1.096 0-1.949-.359-2.559-1.077-.609-.717-.914-1.738-.914-3.06 0-1.324.306-2.352.918-3.085.613-.732 1.464-1.098 2.555-1.098 1.138 0 2.01.395 2.617 1.186h.1l-.054-.578-.03-.564v-3.267h1.27v11.397h-1.034l-.168-1.077zM293.326 38.854h1.27v-8.027h-1.27v8.027zm-.107-10.203c0-.278.071-.482.214-.611a.77.77 0 0 1 .536-.194c.203 0 .38.066.528.197.148.132.221.335.221.608 0 .274-.073.478-.221.612a.762.762 0 0 1-.528.201.752.752 0 0 1-.536-.201c-.143-.134-.214-.338-.214-.612zM307.679 38.854v-5.222c0-.64-.143-1.119-.428-1.439-.286-.32-.73-.48-1.331-.48-.791 0-1.375.217-1.752.652-.378.434-.567 1.103-.567 2.007v4.482h-1.27v-5.222c0-.64-.142-1.119-.428-1.439-.286-.32-.732-.48-1.34-.48-.795 0-1.377.228-1.747.685-.37.457-.555 1.204-.555 2.245v4.211h-1.27v-8.027h1.033l.207 1.098h.06c.24-.39.578-.695 1.014-.915.437-.22.925-.33 1.466-.33 1.31 0 2.167.454 2.57 1.362h.062c.249-.42.61-.752 1.086-.996.474-.244 1.015-.366 1.622-.366.948 0 1.659.234 2.13.699.472.467.708 1.213.708 2.238v5.237h-1.27zM311.252 38.854h1.27v-8.027h-1.27v8.027zm-.107-10.203c0-.278.071-.482.214-.611a.771.771 0 0 1 .536-.194.77.77 0 0 1 .528.197c.148.132.222.335.222.608 0 .274-.074.478-.222.612a.76.76 0 0 1-.528.201.754.754 0 0 1-.536-.201c-.143-.134-.214-.338-.214-.612zM318.115 31.698c-.673 0-1.21.21-1.61.63-.4.42-.637 1.001-.708 1.743h4.383c0-.767-.178-1.353-.535-1.76-.357-.409-.867-.613-1.53-.613M318.46 39c-1.239 0-2.217-.36-2.934-1.084-.716-.722-1.075-1.726-1.075-3.01 0-1.294.333-2.322 1-3.084.664-.76 1.558-1.142 2.68-1.142 1.051 0 1.882.331 2.494.992.613.662.918 1.535.918 2.62v.768h-5.776c.026.942.274 1.658.746 2.146s1.136.732 1.993.732c.903 0 1.796-.18 2.678-.542v1.084a6.87 6.87 0 0 1-1.274.4c-.4.08-.883.12-1.45.12M329.133 38.854v-5.193c0-.654-.156-1.143-.467-1.465-.311-.322-.798-.483-1.461-.483-.877 0-1.52.227-1.928.681-.408.454-.612 1.204-.612 2.249v4.211h-1.27v-8.027h1.033l.207 1.098h.06c.26-.395.625-.701 1.095-.919a3.688 3.688 0 0 1 1.568-.326c1.01 0 1.77.234 2.28.699.51.467.765 1.213.765 2.238v5.237h-1.27zM335.422 37.997c.225 0 .44-.016.65-.047.209-.032.375-.065.498-.099v.93a2.459 2.459 0 0 1-.608.157 4.835 4.835 0 0 1-.724.062c-1.621 0-2.432-.817-2.432-2.453v-4.776h-1.201v-.586l1.2-.505.536-1.714h.735v1.86h2.433v.945h-2.433v4.725c0 .483.119.854.359 1.113.24.26.569.388.987.388M338.781 34.833c0 1.025.214 1.807.643 2.344.428.537 1.058.805 1.89.805.831 0 1.462-.267 1.893-.802.431-.534.646-1.317.646-2.347 0-1.02-.215-1.795-.646-2.326-.43-.529-1.068-.794-1.909-.794-.83 0-1.459.261-1.882.784-.424.522-.635 1.301-.635 2.336m6.388 0c0 1.309-.344 2.331-1.033 3.065-.688.735-1.64 1.103-2.854 1.103-.749 0-1.415-.169-1.996-.506a3.39 3.39 0 0 1-1.347-1.45c-.316-.63-.474-1.367-.474-2.212 0-1.309.342-2.328 1.025-3.058.684-.73 1.632-1.095 2.846-1.095 1.173 0 2.105.374 2.797 1.121.691.747 1.036 1.758 1.036 3.032M352.491 36.664c0 .747-.29 1.323-.872 1.729-.582.405-1.398.608-2.448.608-1.112 0-1.979-.169-2.6-.506v-1.128c.401.195.834.349 1.295.462.462.112.907.168 1.335.168.663 0 1.173-.101 1.53-.304.357-.202.536-.511.536-.926 0-.313-.142-.58-.425-.803-.283-.221-.835-.484-1.656-.787-.78-.278-1.335-.521-1.664-.728-.329-.208-.574-.444-.735-.707-.16-.264-.24-.579-.24-.945 0-.654.277-1.171.834-1.55.555-.377 1.318-.567 2.287-.567.903 0 1.785.176 2.647.528l-.452.988c-.84-.332-1.604-.498-2.287-.498-.602 0-1.056.091-1.36.271-.308.181-.46.43-.46.747a.89.89 0 0 0 .171.55c.115.151.3.295.555.432.255.137.745.334 1.47.593.994.347 1.665.696 2.015 1.047.35.352.524.794.524 1.326M159.794 15.623c-2.274 0-4.034.854-5.281 2.563-1.247 1.708-1.871 4.088-1.871 7.141 0 6.353 2.384 9.529 7.152 9.529 2 0 4.423-.5 7.269-1.5v5.066c-2.34.974-4.95 1.462-7.834 1.462-4.145 0-7.314-1.257-9.51-3.771-2.195-2.513-3.293-6.122-3.293-10.825 0-2.962.539-5.557 1.617-7.785 1.079-2.228 2.627-3.936 4.648-5.125 2.02-1.189 4.388-1.783 7.103-1.783 2.767 0 5.547.67 8.34 2.007l-1.948 4.911a32.343 32.343 0 0 0-3.216-1.325c-1.078-.377-2.137-.565-3.176-.565M173.122 39.494h6.041v-28.49h-6.041zM202.742 39.494h-16.408v-28.49h16.408v4.95h-10.367v6.255h9.646v4.95h-9.646v7.346h10.367z" mask="url(#b)"/>
    </g>
</svg>
